HIERARCHY
ROOT Hips
{
	OFFSET -3.958830 18.904000 13.208200
	CHANNELS 6 Xposition Yposition Zposition Zrotation Yrotation Xrotation 
	JOINT LHipJoint
	{
		OFFSET 0.000000 0.000000 0.000000
		CHANNELS 3 Zrotation Yrotation Xrotation
		JOINT LeftUpLeg
		{
			OFFSET 1.800000 -1.400000 0.085000
			CHANNELS 3 Zrotation Yrotation Xrotation
			JOINT LeftLeg
			{
				OFFSET 2.215000 -6.000000 0.000000
				CHANNELS 3 Zrotation Yrotation Xrotation
				JOINT LeftFoot
				{
					OFFSET 2.500000 -6.900000 0.000000
					CHANNELS 3 Zrotation Yrotation Xrotation
					JOINT LeftToeBase
					{
						OFFSET 0.200000 -0.500000 1.950000
						CHANNELS 3 Zrotation Yrotation Xrotation
						End Site
						{
							OFFSET 0.000000 0.000000 0.000000
						}
					}
				}
			}
		}
	}
	JOINT RHipJoint
	{
		OFFSET 0.000000 0.000000 0.000000
		CHANNELS 3 Zrotation Yrotation Xrotation
		JOINT RightUpLeg
		{
			OFFSET -1.800000 -1.400000 0.085000
			CHANNELS 3 Zrotation Yrotation Xrotation
			JOINT RightLeg
			{
				OFFSET -2.215000 -6.000000 0.000000
				CHANNELS 3 Zrotation Yrotation Xrotation
				JOINT RightFoot
				{
					OFFSET -2.500000 -6.900000 0.000000
					CHANNELS 3 Zrotation Yrotation Xrotation
					JOINT RightToeBase
					{
						OFFSET -0.200000 -0.500000 1.950000
						CHANNELS 3 Zrotation Yrotation Xrotation
						End Site
						{
							OFFSET 0.000000 0.000000 0.000000
						}
					}
				}
			}
		}
	}
	JOINT LowerBack
	{
		OFFSET 0.000000 0.000000 0.000000
		CHANNELS 3 Zrotation Yrotation Xrotation
		JOINT Spine
		{
			OFFSET -0.087000 1.940000 -0.288900
			CHANNELS 3 Zrotation Yrotation Xrotation
			JOINT Spine1
			{
				OFFSET 0.000000 1.950000 0.060000
				CHANNELS 3 Zrotation Yrotation Xrotation
				JOINT Neck
				{
					OFFSET 0.000000 0.000000 0.000000
					CHANNELS 3 Zrotation Yrotation Xrotation
					JOINT Neck1
					{
						OFFSET 0.000000 1.600000 0.340000
						CHANNELS 3 Zrotation Yrotation Xrotation
						JOINT Head
						{
							OFFSET 0.000000 1.667000 -0.240000
							CHANNELS 3 Zrotation Yrotation Xrotation
							End Site
							{
								OFFSET 0.000000 0.000000 0.000000
							}
						}
					}
				}
				JOINT LeftShoulder
				{
					OFFSET 0.000000 0.000000 0.000000
					CHANNELS 3 Zrotation Yrotation Xrotation
					JOINT LeftArm
					{
						OFFSET 2.700000 1.550000 -0.730000
						CHANNELS 3 Zrotation Yrotation Xrotation
						JOINT LeftForeArm
						{
							OFFSET 5.450000 0.000000 0.000000
							CHANNELS 3 Zrotation Yrotation Xrotation
							JOINT LeftHand
							{
								OFFSET 3.450000 0.000000 0.000000
								CHANNELS 3 Zrotation Yrotation Xrotation
								JOINT LeftHandIndex1
								{
									OFFSET 0.750000 0.000000 0.000000
									CHANNELS 3 Zrotation Yrotation Xrotation
									End Site
									{
										OFFSET 0.000000 0.000000 0.000000
									}
								}
							}
						}
					}
				}
				JOINT RightShoulder
				{
					OFFSET 0.000000 0.000000 0.000000
					CHANNELS 3 Zrotation Yrotation Xrotation
					JOINT RightArm
					{
						OFFSET -2.700000 1.550000 -0.730000
						CHANNELS 3 Zrotation Yrotation Xrotation
						JOINT RightForeArm
						{
							OFFSET -5.450000 0.000000 0.000000
							CHANNELS 3 Zrotation Yrotation Xrotation
							JOINT RightHand
							{
								OFFSET -3.450000 0.000000 0.000000
								CHANNELS 3 Zrotation Yrotation Xrotation
								JOINT RightHandIndex1
								{
									OFFSET -0.750000 0.000000 0.000000
									CHANNELS 3 Zrotation Yrotation Xrotation
									End Site
									{
										OFFSET 0.000000 0.000000 0.000000
									}
								}
							}
						}
					}
				}
			}
		}
	}
}
MOTION
Frames: 7
Frame Time: 0.016667
-1.171950 17.079730 -0.254340 -1.883571 1.778338 -5.790447 -15.211850 10.112125 5.483283 21.601021 -7.158433 -42.941240 -12.640205 20.556537 57.700128 0.665888 12.770257 0.133285 -0.572110 -0.565220 -0.660430 18.724949 -9.334333 3.228292 -30.847388 3.450920 -31.539828 15.501051 -20.252008 49.713794 -1.216420 -9.684632 0.975152 -0.369370 0.835850 0.138200 -4.227607 0.106981 -9.477085 20.665243 -1.464513 43.876620 -3.910751 5.325847 12.593333 -0.087645 2.483905 -14.239519 2.951421 -6.967435 38.427818 1.793690 -4.202140 -23.446180 7.149261 -12.622520 5.333594 -16.103020 1.601770 -12.107772 -31.607505 -84.936923 21.133867 -3.554891 3.116307 0.823290 0.210380 -0.029120 0.018710 -7.561952 14.046083 12.692329 53.080154 7.842351 -10.617536 169.746260 54.722576 130.747402 1.944842 -0.953512 -0.575660 0.771780 0.778970 0.058780 
-1.241420 17.052670 -0.253760 -2.022687 2.187825 -6.640954 -15.268041 10.210000 5.422568 21.685316 -7.160968 -42.691276 -11.496142 20.222405 58.609747 0.640333 12.801559 0.108168 -0.556580 -0.549730 -0.639050 18.667288 -9.263296 3.250240 -30.852613 3.511899 -31.051341 16.199659 -21.024845 50.714155 -1.301792 -9.961031 0.885909 -0.351670 0.839840 0.152350 -4.060366 -0.145098 -9.475764 18.719096 -0.216088 44.873212 -2.014888 6.017846 12.503962 -0.798796 3.104197 -14.177998 4.173850 -7.637895 38.078208 2.497400 -3.741170 -23.777530 7.971456 -12.809336 5.564895 -15.448611 0.543665 -11.397821 131.059896 -89.321442 -141.000007 -3.611665 3.232006 0.831420 0.220980 -0.022570 0.011450 -7.023848 14.223962 12.335230 54.711784 8.867217 -11.742685 166.566069 56.946814 126.644620 1.941818 -0.896894 -0.579280 0.773000 0.781560 0.046480 
-1.350830 17.007200 -0.241010 -2.588911 3.076003 -8.055293 -15.329861 10.314372 5.356589 22.238242 -7.140418 -42.457516 -9.654105 19.664113 60.190043 0.679449 12.792901 0.091989 -0.479330 -0.437680 -0.603740 18.604151 -9.183741 3.269156 -30.471103 3.524203 -30.205158 17.212683 -22.401819 52.497810 -1.486746 -10.441646 0.739541 -0.309090 0.798220 0.191500 -3.875390 -0.428555 -9.484390 16.362144 1.080196 45.956383 0.187605 6.601719 11.794339 -1.934442 4.275788 -14.090732 6.285928 -8.743434 38.439502 3.067030 -2.796370 -23.335830 9.003842 -14.602791 4.924695 -13.175980 0.713854 -13.616167 171.971074 -82.685084 179.478003 -3.411020 3.130940 0.810000 0.216480 0.028210 0.046760 -5.878779 15.544257 12.328052 57.475347 10.345888 -13.550271 161.021011 60.492126 120.304853 1.975455 -0.850838 -0.517880 0.716120 0.717270 0.061180 
-1.479940 16.950580 -0.200470 -3.139638 3.270859 -8.968976 -15.460753 10.452703 5.342873 23.598097 -6.672933 -42.393386 -8.125446 19.588982 61.597597 0.729077 12.821684 0.056380 -0.389490 -0.292390 -0.537360 18.487301 -8.989801 3.282030 -29.536271 3.709621 -30.025267 17.687721 -23.549887 54.657092 -1.664728 -10.857840 0.648487 -0.252870 0.729720 0.172490 -3.518073 -0.937152 -9.517719 12.330342 3.798530 45.694811 3.904271 8.030805 11.366632 -3.284137 5.613841 -14.368798 8.678422 -10.224801 40.421428 3.821950 -1.577540 -23.244580 10.262824 -16.201127 4.951293 -10.625713 -1.746523 -13.277755 160.470574 -75.904427 -167.147719 -3.316433 3.334395 0.795050 0.190540 0.084000 0.070510 -4.442442 16.909078 12.242902 60.129343 11.340610 -16.280318 148.802662 65.056632 106.889798 2.083292 -0.635439 -0.468750 0.695940 0.632060 0.062470 
-1.627730 16.895880 -0.142490 -3.265829 3.703613 -9.621593 -15.612648 10.595528 5.322576 24.788092 -6.445971 -42.252009 -6.861881 19.611330 62.732637 0.662425 12.972241 -0.008524 -0.333700 -0.253720 -0.469750 18.357339 -8.780746 3.263256 -28.831670 3.651601 -29.706157 18.016378 -24.671801 56.635441 -1.812443 -11.260208 0.539839 -0.194200 0.733550 0.156380 -3.107722 -1.518264 -9.505484 6.797591 6.803559 44.092332 8.038598 9.136731 11.356053 -4.855492 6.626552 -14.429461 10.551350 -11.175524 42.431236 5.011370 -0.548830 -22.722550 12.357548 -17.664458 4.535956 -8.194348 -5.464034 -12.774253 154.320936 -70.632046 -158.570724 -3.289679 3.409213 0.847880 0.194550 0.090390 0.073230 -3.218461 18.368457 12.006593 62.012747 13.269209 -18.645329 126.779084 69.530782 83.439082 2.455129 0.046016 -0.517250 0.743320 0.619170 0.016940 
-1.781790 16.849750 -0.073970 -3.876405 4.118795 -10.214236 -15.710800 10.656107 5.309489 26.693218 -6.157631 -41.866741 -6.097757 19.594780 62.954429 0.534141 13.020727 -0.069339 -0.282160 -0.202780 -0.430950 18.283327 -8.687983 3.172716 -27.208922 3.507269 -29.289293 17.671409 -25.442384 58.611725 -1.920887 -11.603915 0.435569 -0.106950 0.748650 0.129290 -2.854980 -1.811726 -9.415270 2.019503 8.891763 41.403747 11.174374 9.736137 11.897845 -6.515114 7.612851 -13.996999 12.434394 -11.910624 43.486421 6.625480 0.578460 -21.710350 15.346970 -18.976372 3.758035 -6.464551 -11.356712 -11.732450 147.097466 -65.006399 -147.595273 -3.348399 3.450206 0.876180 0.211250 0.069800 0.067800 -2.739621 19.347791 11.346701 65.010387 14.995967 -14.294561 94.934311 76.153748 50.503408 3.551415 0.711233 -0.574710 0.791370 0.626910 -0.024830 
-1.923790 16.817570 0.002850 -4.801877 4.409268 -10.984042 -15.808138 10.816463 5.232769 28.626810 -5.780665 -40.894322 -5.059148 19.250016 62.763488 0.422632 12.931795 -0.074952 -0.209340 -0.073770 -0.433260 18.201111 -8.643085 3.010317 -25.049433 3.293642 -28.377038 17.011403 -25.781530 60.096978 -1.998055 -11.858451 0.386931 0.013990 0.803340 0.110230 -2.592239 -2.193029 -9.227806 -2.775782 10.684594 37.690199 14.683796 10.186901 13.963864 -8.228680 8.929225 -13.154491 14.649972 -12.490389 42.663219 7.599110 1.804760 -20.171140 18.969680 -20.279929 1.902444 -5.630577 -20.478350 -9.751610 137.693746 -60.793625 -133.291096 -3.555687 3.366389 0.821450 0.270420 0.033670 0.104950 -2.681662 20.322766 11.529408 66.648618 15.867371 -14.467088 58.894309 76.035437 25.756064 2.006554 -1.048868 -0.591130 0.850720 0.616890 -0.014280 
